<?xml version="1.0" encoding="UTF-8" standalone="no"?>
<!DOCTYPE svg PUBLIC "-//W3C//DTD SVG 1.1//EN" "http://www.w3.org/Graphics/SVG/1.1/DTD/svg11.dtd">
<svg width="100%" height="100%" viewBox="0 0 1600 1600" version="1.1" xmlns="http://www.w3.org/2000/svg" xmlns:xlink="http://www.w3.org/1999/xlink" xml:space="preserve" xmlns:serif="http://www.serif.com/" style="fill-rule:evenodd;clip-rule:evenodd;stroke-linejoin:round;stroke-miterlimit:2;">
    <g transform="matrix(1.18233,0,0,1.18233,-133.237,-183.371)">
        <g transform="matrix(1.4711,0,0,1.4711,-121.2,-491.303)">
            <g transform="matrix(0.679764,0,0,0.679764,81.7078,335.33)">
                <path d="M526.652,1036.18C523.876,1031.36 521.744,1030.1 515.98,1023.33L512.019,981.738L511.245,981.738C483.382,1031.27 429.204,1062.23 359.547,1062.23C270.541,1062.23 208.623,1014.25 208.623,944.587C208.623,881.896 258.157,831.588 385.088,816.109L481.834,804.499C501.183,802.177 513.567,791.342 513.567,774.314C513.567,725.554 467.129,693.821 399.02,693.821C325.492,693.821 273.637,741.034 270.541,787.472L217.137,765.027C224.103,700.787 299.951,640.418 401.341,640.418C501.183,640.418 571.615,696.143 571.615,783.602L571.615,1046.75L538.293,1046.75C537.851,1045.76 537.343,1044.9 536.759,1044.29C532.424,1039.75 529.136,1037.39 526.652,1036.18ZM369.609,1008.83C451.649,1008.83 512.019,955.423 512.019,879.574L512.019,851.711L391.28,866.417C296.856,878.026 267.445,908.211 267.445,943.813C267.445,983.286 310.013,1008.83 369.609,1008.83Z"/>
            </g>
            <path d="M630.21,1057.4C694.396,1057.4 742.799,1020.57 742.799,970.587C742.799,931.128 715.967,909.031 653.359,895.878L610.218,887.46C573.39,879.569 557.606,868.52 557.606,849.054C558.132,826.431 582.86,805.912 616.531,805.912C654.412,805.912 682.296,826.431 685.979,854.315L724.385,843.793C714.389,800.651 672.826,770.662 617.057,770.662C560.237,770.662 519.2,804.86 518.674,851.158C518.674,890.091 542.349,912.188 597.591,923.762L639.68,932.18C684.4,941.124 703.867,953.751 703.867,974.269C703.867,1001.63 671.773,1021.09 630.21,1021.09C582.86,1021.09 547.084,995.314 543.927,958.486L504.468,966.378C509.204,1023.2 563.92,1057.4 630.21,1057.4Z" style="fill-rule:nonzero;"/>
        </g>
        <g transform="matrix(0.0828569,0.319503,-0.319503,0.0828569,392.102,659.816)">
            <path d="M759.411,590.061C745.829,585.957 681.504,570.566 651.322,547.556C621.14,524.546 593.148,481.772 578.318,452C565.745,426.758 560.601,397.068 562.343,368.921C564.219,338.599 579.274,296.072 589.577,270.063C597.782,249.35 612.489,229.531 624.161,212.868C634.787,197.698 650.733,170.742 659.61,170.083C668.487,169.424 669.927,196.805 677.421,208.914C685.618,222.157 698.249,236.064 708.79,249.541C723.272,268.057 751.212,299.409 764.317,320.01C774.684,336.307 784.794,354.014 787.422,373.15C790.29,394.026 787.722,423.71 781.522,445.265C775.513,466.158 759.799,487.594 750.222,502.484C742.752,514.098 731.207,532.006 724.061,534.605C716.915,537.205 712.882,523.627 707.348,518.081C697.671,508.383 677.296,492.391 665.996,476.416C654.32,459.908 643.978,439.351 637.291,419.038C630.51,398.44 626.138,375.039 625.312,352.832C624.485,330.625 629.867,303.433 632.334,285.795C634.16,272.735 640.299,250.936 640.11,247.006C639.921,243.076 633.554,256.833 631.199,262.217C628.668,268.004 626.837,275.168 624.925,281.726C622.296,290.742 617.485,304.533 615.426,316.309C612.721,331.781 609.226,356.122 608.695,374.559C608.191,392.051 608.348,409.875 612.239,426.935C616.152,444.094 622.937,461.92 632.174,477.509C642.07,494.211 658.383,513.671 671.618,527.149C683.464,539.211 701.387,550.871 711.586,558.375C718.385,563.377 725.779,567.515 732.815,572.176C740.786,577.457 769.637,593.15 759.411,590.061Z" style="fill:rgb(37,153,92);"/>
        </g>
    </g>
    <g transform="matrix(0.38467,0,0,0.38467,462.095,802.727)">
        <g transform="matrix(526.116,0,0,526.116,761.213,1046.87)">
            <path d="M0.215,0.02C0.305,0.02 0.375,-0.02 0.411,-0.084L0.412,-0.084L0.42,-0L0.489,-0L0.489,-0.34C0.489,-0.453 0.398,-0.525 0.269,-0.525C0.138,-0.525 0.04,-0.447 0.031,-0.364L0.1,-0.335C0.104,-0.395 0.171,-0.456 0.266,-0.456C0.354,-0.456 0.414,-0.415 0.414,-0.352C0.414,-0.33 0.398,-0.316 0.373,-0.313L0.248,-0.298C0.084,-0.278 0.02,-0.213 0.02,-0.132C0.02,-0.042 0.1,0.02 0.215,0.02ZM0.228,-0.049C0.151,-0.049 0.096,-0.082 0.096,-0.133C0.096,-0.179 0.134,-0.218 0.256,-0.233L0.412,-0.252L0.412,-0.216C0.412,-0.118 0.334,-0.049 0.228,-0.049Z" style="fill-rule:nonzero;"/>
        </g>
        <g transform="matrix(526.116,0,0,526.116,761.213,1046.87)">
        </g>
        <g transform="matrix(526.116,0,0,526.116,2315.89,1046.87)">
        </g>
        <text x="213px" y="1046.87px" style="font-family:'Agrandir-Regular', 'Agrandir';font-size:526.116px;">gr<tspan x="1042.16px " y="1046.87px ">p</tspan>hics</text>
    </g>
    <g transform="matrix(1.73932,0,0,1.73932,607.169,-761.887)">
        <rect x="242.989" y="781.185" width="39.985" height="265.689" style="fill-rule:nonzero;"/>
        <rect x="314.014" y="660.178" width="39.985" height="386.696" style="fill-rule:nonzero;"/>
        <path d="M403.98,729.625C421.342,729.625 433.969,718.051 433.969,700.163C433.969,682.801 421.342,671.226 403.98,671.226C386.092,671.226 374.518,682.801 374.518,700.163C374.518,718.051 386.092,729.625 403.98,729.625ZM383.462,1046.87L423.447,1046.87L423.447,781.185L383.462,781.185L383.462,1046.87Z" style="fill-rule:nonzero;"/>
    </g>
    <g transform="matrix(1.73932,0,0,1.73932,977.276,-766.135)">
        <g transform="matrix(526.116,0,0,526.116,314.54,1046.87)">
        </g>
        <text x="213px" y="1046.87px" style="font-family:'Agrandir-Regular', 'Agrandir';font-size:526.116px;">.</text>
    </g>
    <g transform="matrix(0.515771,0,0,0.515771,709.676,260.307)">
        <path d="M759.411,590.061C745.829,585.957 681.504,570.566 651.322,547.556C621.14,524.546 593.148,481.772 578.318,452C565.745,426.758 560.601,397.068 562.343,368.921C564.219,338.599 579.274,296.072 589.577,270.063C597.782,249.35 612.489,229.531 624.161,212.868C634.787,197.698 650.733,170.742 659.61,170.083C668.487,169.424 669.927,196.805 677.421,208.914C685.618,222.157 698.249,236.064 708.79,249.541C723.272,268.057 751.212,299.409 764.317,320.01C774.684,336.307 784.794,354.014 787.422,373.15C790.29,394.026 787.722,423.71 781.522,445.265C775.513,466.158 759.799,487.594 750.222,502.484C742.752,514.098 731.207,532.006 724.061,534.605C716.915,537.205 712.882,523.627 707.348,518.081C697.671,508.383 677.296,492.391 665.996,476.416C654.32,459.908 643.978,439.351 637.291,419.038C630.51,398.44 626.138,375.039 625.312,352.832C624.485,330.625 629.867,303.433 632.334,285.795C634.16,272.735 640.299,250.936 640.11,247.006C639.921,243.076 633.554,256.833 631.199,262.217C628.668,268.004 626.837,275.168 624.925,281.726C622.296,290.742 617.485,304.533 615.426,316.309C612.721,331.781 609.226,356.122 608.695,374.559C608.191,392.051 608.348,409.875 612.239,426.935C616.152,444.094 622.937,461.92 632.174,477.509C642.07,494.211 658.383,513.671 671.618,527.149C683.464,539.211 701.387,550.871 711.586,558.375C718.385,563.377 725.779,567.515 732.815,572.176C740.786,577.457 769.637,593.15 759.411,590.061Z" style="fill:rgb(37,153,92);"/>
    </g>
    <g transform="matrix(1.18233,0,0,1.22272,-135.039,-223.196)">
        <path d="M511.655,982.847C511.614,990.559 511.532,1005.98 512.736,1015.68C514.178,1027.3 528.202,1041.21 537.437,1048.24C545.973,1054.73 557.444,1057.2 568.15,1057.82C579.798,1058.49 596.789,1055.43 607.326,1052.25C616.124,1049.6 624.178,1044.39 631.367,1038.75C638.556,1033.12 648.372,1021.14 650.459,1018.44C652.042,1016.4 646.185,1021.38 643.888,1022.57C641.489,1023.81 638.708,1024.87 636.064,1025.89C632.971,1027.08 629.107,1029.31 625.33,1029.72C620.569,1030.24 612.962,1029.9 607.496,1029C602.339,1028.15 597.097,1026.64 592.536,1024.29C587.975,1021.95 583.455,1018.74 580.13,1014.94C576.804,1011.13 573.932,1006.43 572.581,1001.46C571.226,996.471 572.179,988.799 571.998,985.016C571.897,982.927 571.627,980.151 571.491,978.763"/>
    </g>
</svg>
